<?xml version="1.0"?>
<svg xmlns="http://www.w3.org/2000/svg" id="outline" viewBox="0 0 512 512" width="512" height="512"><path d="M408,224H392a8,8,0,0,0-7.15527,11.57812l8,16a8.00009,8.00009,0,0,0,14.31054,0l8-16A8,8,0,0,0,408,224Z"/><circle cx="376" cy="192" r="8"/><circle cx="424" cy="192" r="8"/><path d="M468,112H434.84583a79.42,79.42,0,0,0-30.48212-7.87646l-10.708-16.062A71.85421,71.85421,0,0,0,333.74805,56H296a71.83015,71.83015,0,0,0-53.60791,24H160C80.59814,80,16,144.59766,16,224v77.64062a80.2379,80.2379,0,0,0,9.76855,38.3086L64,410.04V448a8.00008,8.00008,0,0,0,8,8h96a8.00008,8.00008,0,0,0,8-8v-8a40.05181,40.05181,0,0,0-24-36.6499V353.88867l48.84473,97.68945A7.99967,7.99967,0,0,0,208,456H328a8.00008,8.00008,0,0,0,8-8v-8a40.05181,40.05181,0,0,0-24-36.6499V381.666a78.34355,78.34355,0,0,1,34.56445-65.248l29.626,133.31738A8.00044,8.00044,0,0,0,384,456h88a8.00008,8.00008,0,0,0,8-8v-8a40.068,40.068,0,0,0-32-39.19507V244l16-12a40.19106,40.19106,0,0,0,16-32V184a79.89382,79.89382,0,0,0-2.0304-17.84082A27.99656,27.99656,0,0,0,468,112ZM161.988,338.08716A111.30272,111.30272,0,0,0,216,352h8v88H212.94434ZM464,440H390.41748L359.80957,302.26465a7.99979,7.99979,0,0,0-11.38721-5.41992A94.31563,94.31563,0,0,0,296,381.666V400H272v16h24a24.02718,24.02718,0,0,1,24,24H240V200H224V336h-8a96.10874,96.10874,0,0,1-96-96v-8H104v8a111.6241,111.6241,0,0,0,32,78.29736V400H112v16h24a24.02718,24.02718,0,0,1,24,24H80V408A8.00053,8.00053,0,0,0,79.023,404.169l-39.208-71.88184A64.1844,64.1844,0,0,1,32,301.64062V224A128.14509,128.14509,0,0,1,160,96h71.52765A71.54,71.54,0,0,0,224,128h16a56.06322,56.06322,0,0,1,56-56h37.748a55.88881,55.88881,0,0,1,46.59521,24.93652l5.55548,8.33326A79.36453,79.36453,0,0,0,365.15417,112H332a27.99656,27.99656,0,0,0-9.9696,54.15918A79.89382,79.89382,0,0,0,320,184v16a40.192,40.192,0,0,0,15.99951,32L352,244v4a47.96905,47.96905,0,0,0,80,35.73877V400H416v16h24A24.0275,24.0275,0,0,1,464,440ZM327.16437,150.97388A11.99475,11.99475,0,0,1,332,128h10.941A80.30307,80.30307,0,0,0,327.16437,150.97388ZM464,200a24.113,24.113,0,0,1-9.6001,19.19922l-19.1997,14.40039A8.00229,8.00229,0,0,0,432,240v8a32,32,0,0,1-64,0v-8a8.00229,8.00229,0,0,0-3.2002-6.40039l-19.20019-14.40039A24.1139,24.1139,0,0,1,336,200V184a64,64,0,0,1,128,0Zm8.83563-49.02612A80.30307,80.30307,0,0,0,457.059,128H468a11.99475,11.99475,0,0,1,4.83563,22.97388Z"/><rect x="224" y="152" width="16" height="24"/></svg>
