<?xml version="1.0" encoding="iso-8859-1"?>
<!-- Generator: Adobe Illustrator 19.0.0, SVG Export Plug-In . SVG Version: 6.00 Build 0)  -->
<svg version="1.1" id="Capa_1" xmlns="http://www.w3.org/2000/svg" xmlns:xlink="http://www.w3.org/1999/xlink" x="0px" y="0px"
	 viewBox="0 0 512.001 512.001" style="enable-background:new 0 0 512.001 512.001;" xml:space="preserve">
<g>
	<g>
		<path d="M265.799,390.351c-0.13-0.64-0.32-1.27-0.57-1.88c-0.25-0.6-0.56-1.18-0.92-1.72c-0.359-0.55-0.779-1.061-1.24-1.521
			c-2.33-2.33-5.78-3.389-9.02-2.739c-0.64,0.13-1.27,0.319-1.88,0.579c-0.601,0.25-1.18,0.561-1.72,0.921
			c-0.551,0.359-1.061,0.779-1.521,1.239c-0.46,0.46-0.88,0.971-1.25,1.521c-0.36,0.54-0.67,1.12-0.92,1.72
			c-0.25,0.61-0.44,1.24-0.57,1.88c-0.129,0.64-0.189,1.3-0.189,1.95c0,2.63,1.07,5.21,2.93,7.07c0.46,0.46,0.97,0.88,1.521,1.239
			c0.54,0.36,1.119,0.671,1.72,0.921c0.61,0.25,1.241,0.439,1.88,0.569c0.639,0.13,1.3,0.2,1.95,0.2c0.65,0,1.31-0.07,1.949-0.2
			c0.64-0.13,1.269-0.319,1.869-0.569c0.61-0.25,1.19-0.561,1.73-0.921c0.55-0.359,1.06-0.779,1.52-1.239
			c1.861-1.86,2.931-4.44,2.931-7.07C265.999,391.651,265.929,390.992,265.799,390.351z"/>
	</g>
</g>
<g>
	<g>
		<path d="M493.427,221.615c-4.82-3.365-37.252-22.856-46.302-28.005c21.318-36.328,29.228-78.879,22.295-120.992
			c-3.087-18.747-5.565-33.649-7.367-44.293c-1.019-6.019-1.879-11.021-2.505-14.531c-1.308-7.328-1.748-9.797-5.569-12.229
			c-2.405-1.53-5.354-1.965-8.099-1.186c-5.005,1.418-7.168,5.536-10.867,13.302c-2.239,4.701-5.245,11.448-8.935,20.054
			c-5.915,13.796-13.638,32.474-22.954,55.513c-8.498,21.015-23.077,39.209-41.601,52.14c-0.661-1.148-1.546-2.16-2.61-2.971
			c-4.789-3.647-11.875-6.619-21.66-9.087c-0.009-0.002-0.018-0.005-0.026-0.007c-40.232-10.174-122.221-10.174-162.453,0
			c-0.009,0.002-0.018,0.005-0.026,0.007c-9.785,2.468-16.871,5.44-21.66,9.087c-1.065,0.81-1.95,1.822-2.61,2.971
			c-18.523-12.931-33.102-31.125-41.601-52.14c-9.317-23.04-17.04-41.717-22.955-55.513c-3.689-8.605-6.695-15.353-8.935-20.054
			C73.288,5.915,71.125,1.797,66.102,0.373c-2.737-0.771-5.68-0.335-8.08,1.191c-3.821,2.432-4.262,4.9-5.569,12.229
			c-0.626,3.51-1.486,8.513-2.505,14.531c-1.802,10.644-4.28,25.546-7.367,44.294c-6.961,42.279,1.042,85.003,22.552,121.425
			c-1.011,0.567-41.749,24.213-46.559,27.571c-6.196,4.326-13.907,9.71-11.089,18.157c0.409,1.227,1.053,2.361,1.894,3.343
			c0.072,0.084,0.163,0.187,0.238,0.268c0.025,0.028,0.051,0.056,0.076,0.083c23.9,25.488,56.93,39.583,91.179,39.581
			c1.705,0,3.413-0.035,5.123-0.105c-1.25,4.994-1.984,8.611-2.036,10.388c-0.758,25.885,7.051,51.78,21.989,72.919
			c13.351,18.88,27.218,40.373,30.791,46.635c-0.18,20.497,6.116,40.694,17.902,57.476v15.14c0,14.613,11.889,26.502,26.501,26.502
			h109.717c14.612,0,26.501-11.889,26.501-26.502v-15.14c11.784-16.78,18.081-36.975,17.903-57.476
			c3.569-6.254,17.428-27.74,30.779-46.635c14.944-21.134,22.757-47.015,22-72.871c-0.052-1.784-0.788-5.419-2.044-10.437
			c1.714,0.07,3.426,0.106,5.135,0.106c34.245,0,67.277-14.094,91.175-39.58c0.025-0.027,0.051-0.055,0.076-0.083
			c0.075-0.081,0.166-0.184,0.238-0.268c0.841-0.981,1.484-2.116,1.894-3.343C507.334,231.325,499.623,225.941,493.427,221.615z
			 M421.665,96.745c10.176-25.165,17.378-42.472,22.469-54.37c1.427,8.524,3.241,19.46,5.552,33.491
			c6.188,37.587-0.905,75.558-19.989,107.923c-18.813-10.503-38.031-20.965-52.733-28.899
			C396.748,139.983,412.336,119.816,421.665,96.745z M445.441,215.687c-18.77,6.472-39.211,7.576-58.573,2.996
			c-4.717-14.894-9.597-29.989-13.916-43.227C394.091,186.897,422.149,202.272,445.441,215.687z M266,141.773
			c21.775,0.41,42.865,2.166,58.775,5.266v22.289c0,34.527-25.575,63.193-58.775,68.05V141.773z M187.225,147.038
			c15.91-3.1,37-4.855,58.775-5.266v95.605c-33.201-4.857-58.775-33.523-58.775-68.05V147.038z M62.315,75.868
			c2.311-14.031,4.125-24.968,5.552-33.492c5.091,11.898,12.293,29.205,22.469,54.37c9.329,23.07,24.917,43.237,44.702,58.145
			c-14.698,7.933-33.912,18.392-52.733,28.9C63.22,151.424,56.127,113.453,62.315,75.868z M138.964,175.715
			c-4.3,13.175-9.147,28.172-13.834,42.969c-19.174,4.534-39.41,3.497-58.032-2.812c1.543-0.866,3.164-1.774,4.85-2.72
			C90.721,202.625,118.261,187.181,138.964,175.715z M111.663,262.49c-29.13,3.007-58.081-6.296-80.029-25.585
			c2.973-2.011,7.274-4.783,13.483-8.567c17.436,8.682,36.708,13.127,56.022,13.126c5.757,0,11.517-0.395,17.233-1.191
			C115.934,248.173,113.656,255.697,111.663,262.49z M317.36,467.015c0,0.034,0,0.068,0,0.102v18.381
			c0,3.585-2.916,6.502-6.501,6.502H201.142c-3.585,0-6.501-2.917-6.501-6.502v-18.381c0-0.034,0-0.068,0-0.102v-10.692
			c0-3.585,2.916-6.502,6.501-6.502h109.717c3.585,0,6.501,2.917,6.501,6.502V467.015z M369.71,354.703
			c-6.967,9.859-15.282,22.162-22.244,32.909c-12.397,19.139-12.362,20.143-12.245,23.461c0.33,9.571-1.122,19.095-4.195,28.075
			c-4.865-5.704-12.101-9.328-20.167-9.328H201.142c-8.066,0-15.302,3.623-20.167,9.327c-3.073-8.979-4.524-18.502-4.194-28.073
			c0.115-3.326,0.149-4.33-12.248-23.464c-6.97-10.757-15.289-23.061-22.253-32.909c-12.433-17.593-18.941-39.141-18.332-60.684
			c0.226-2.369,5.125-19.899,5.219-20.322c3.284-11.287,37.639-118.649,38.059-119.917v15.548c0,45.571,34.514,83.231,78.775,88.215
			v93.187c0,5.522,4.478,10,10,10c5.522,0,10-4.478,10-10v-93.187c44.261-4.984,78.775-42.645,78.775-88.215V153.78
			c0.421,1.271,34.784,108.676,38.059,119.936c0.091,0.409,4.993,17.963,5.219,20.339
			C388.662,315.576,382.151,337.111,369.71,354.703z M400.331,262.487c-1.992-6.793-4.269-14.316-6.707-22.214
			c5.716,0.795,11.477,1.19,17.236,1.19c19.311-0.001,38.589-4.445,56.022-13.127c6.209,3.784,10.511,6.556,13.484,8.567
			C458.417,256.195,429.469,265.497,400.331,262.487z"/>
	</g>
</g>
<g>
	<g>
		<path d="M229.591,460.91h-13.424c-5.522,0-10,4.478-10,10c0,5.522,4.478,10,10,10h13.424c5.522,0,10-4.478,10-10
			C239.591,465.388,235.113,460.91,229.591,460.91z"/>
	</g>
</g>
<g>
	<g>
		<path d="M295.833,460.91h-13.424c-5.522,0-10,4.478-10,10c0,5.522,4.478,10,10,10h13.424c5.523,0,10-4.478,10-10
			C305.833,465.388,301.355,460.91,295.833,460.91z"/>
	</g>
</g>
<g>
	<g>
		<path d="M358.617,274.498c-0.848-3.77-3.792-6.714-7.563-7.563c-2.584-0.58-25.616-5.298-38.634,7.718
			c-13.017,13.017-8.297,36.049-7.717,38.633c0.848,3.77,3.792,6.714,7.563,7.563c1.134,0.255,6.205,1.307,12.643,1.307
			c8.229,0,18.687-1.72,25.989-9.025C363.917,300.114,359.197,277.081,358.617,274.498z M336.758,298.989c-0.001,0-0.001,0-0.001,0
			c-2.544,2.543-8.154,3.306-13.324,3.136c-0.161-5.029,0.522-10.722,3.129-13.33c2.545-2.544,8.142-3.309,13.33-3.136
			C340.061,290.844,339.3,296.446,336.758,298.989z"/>
	</g>
</g>
<g>
	<g>
		<path d="M199.579,274.654c-13.018-13.016-36.051-8.297-38.633-7.717c-3.77,0.848-6.714,3.792-7.563,7.563
			c-0.58,2.583-5.3,25.616,7.719,38.633h-0.001c7.304,7.303,17.761,9.023,25.99,9.023c6.436,0,11.51-1.052,12.643-1.305
			c3.77-0.849,6.714-3.793,7.563-7.563C207.877,310.704,212.597,287.672,199.579,274.654z M188.574,302.119
			c-5.028,0.161-10.723-0.523-13.33-3.13c0,0,0,0-0.001,0c-2.543-2.543-3.303-8.148-3.136-13.324
			c5.039-0.155,10.724,0.524,13.331,3.129C187.981,291.338,188.741,296.943,188.574,302.119z"/>
	</g>
</g>
<g>
</g>
<g>
</g>
<g>
</g>
<g>
</g>
<g>
</g>
<g>
</g>
<g>
</g>
<g>
</g>
<g>
</g>
<g>
</g>
<g>
</g>
<g>
</g>
<g>
</g>
<g>
</g>
<g>
</g>
</svg>
