<?xml version="1.0"?>
<svg xmlns="http://www.w3.org/2000/svg" viewBox="0 0 512 512" width="512" height="512"><g id="Outline"><path d="M444.559,152.835a27.25,27.25,0,0,0,6.274,29.312l26,26a10.825,10.825,0,0,1-3.375,17.6,10.582,10.582,0,0,1-11.215-1.628l-16.007-13.339A92.1,92.1,0,0,0,363.641,160,75.085,75.085,0,0,1,318.4,144.8l-11.306-8.48a119.889,119.889,0,0,0-68.088-24.264,117.621,117.621,0,0,0-84.024,31.551L61.044,224H53.766l-1.117-3.351A30.16,30.16,0,0,0,24.045,200,8.027,8.027,0,0,0,16,208v32a32,32,0,0,0,32,32h8v64a8,8,0,0,0,8,8H96a8,8,0,0,0,5.657-2.343L123.313,320H136v13.875l-30.832,53.956a8.259,8.259,0,0,0-.827,6.491A8.008,8.008,0,0,0,112,400h40a8,8,0,0,0,6.946-4.031l32-56A8,8,0,0,0,192,336V320h24v13.875l-30.832,53.956a8.259,8.259,0,0,0-.827,6.491A8.008,8.008,0,0,0,192,400h40a8,8,0,0,0,6.946-4.031l32-56A8,8,0,0,0,272,336V320h45.578l40.9,27.267-14.067,42.2a8.013,8.013,0,0,0,2.852,8.983A8.274,8.274,0,0,0,352.217,400H392a8,8,0,0,0,7.761-6.06l14.9-59.59,23.48,7.044-13.77,48.193a8.3,8.3,0,0,0,.074,5.051A8.011,8.011,0,0,0,432,400h40a8,8,0,0,0,7.81-6.265l16-72a8,8,0,0,0-2.153-7.391L456,276.687V252a92.367,92.367,0,0,0-.983-13.429,26.477,26.477,0,0,0,14.087,4.1,26.945,26.945,0,0,0,26.827-24.911,26.7,26.7,0,0,0-7.789-20.929L461.8,170.486A10.829,10.829,0,0,1,469.457,152H488a8,8,0,0,0,8-8h0a8,8,0,0,0-8-8H469.457A26.423,26.423,0,0,0,444.559,152.835ZM176,333.875,147.357,384H125.786l25.16-44.031A8,8,0,0,0,152,336V320h24ZM385.754,384H363.1l12.489-37.47a8,8,0,0,0-3.151-9.186L346.422,320h34.493a56.328,56.328,0,0,0,18.4,9.735Zm93.484-61.448L465.583,384H442.606l13.086-45.8a8,8,0,0,0-5.393-9.861L404.506,314.6A39.755,39.755,0,0,1,376,276.287V264H360v12.287A56.071,56.071,0,0,0,367.252,304H272V272H256v61.875L227.357,384H205.786l25.16-44.031A8,8,0,0,0,232,336V288H216v16H120a8,8,0,0,0-5.657,2.343L92.687,328H72V264a8,8,0,0,0-8-8H48a16.019,16.019,0,0,1-16-16V218.463a14.177,14.177,0,0,1,5.47,7.245l2.941,8.822A8,8,0,0,0,48,240H152a8,8,0,0,0,7.589-5.47l2.941-8.822a14.177,14.177,0,0,1,5.47-7.245V240a16.019,16.019,0,0,1-16,16H128v16h24a32.036,32.036,0,0,0,32-32V208a8,8,0,0,0-8-8,30.16,30.16,0,0,0-28.649,20.649L146.234,224H85.652l79.862-68.347c.088-.075.173-.152.257-.23a101.967,101.967,0,0,1,130.753-7.03L308.8,157.6A92.581,92.581,0,0,0,364,176a76.085,76.085,0,0,1,76,76v28a8,8,0,0,0,2.343,5.657Z"/></g></svg>
